<svg xmlns="http://www.w3.org/2000/svg" viewBox="0 0 400 300">
  <!-- Placeholder illustration: fiddle-leaf fig. Replace with a real photo when one is available. -->
  <rect width="400" height="300" fill="#EEE8DB"/>
  <rect y="232" width="400" height="68" fill="#E3DACA"/>
  <ellipse cx="200" cy="268" rx="60" ry="7" fill="#2B2B28" opacity=".1"/>
  <path d="M200 194V70" fill="none" stroke="#6B5238" stroke-width="6" stroke-linecap="round"/>
  <ellipse cx="166" cy="150" rx="25" ry="38" transform="rotate(-40 166 150)" fill="#3C7C49"/>
  <ellipse cx="236" cy="134" rx="25" ry="38" transform="rotate(40 236 134)" fill="#2F6B3D"/>
  <ellipse cx="170" cy="98" rx="23" ry="35" transform="rotate(-32 170 98)" fill="#2F6B3D"/>
  <ellipse cx="230" cy="84" rx="23" ry="35" transform="rotate(32 230 84)" fill="#3C7C49"/>
  <ellipse cx="200" cy="54" rx="21" ry="33" fill="#2F6B3D"/>
  <g fill="none" stroke="#9CC08F" stroke-width="2" stroke-linecap="round">
    <path d="M186 174L146 126M216 158L256 110M186 124L154 72M214 110L246 58M200 82V26"/>
  </g>
  <path d="M158 196h84l-9 66a6 6 0 0 1 -6 5h-54a6 6 0 0 1 -6 -5z" fill="#B5552F"/>
  <rect x="152" y="186" width="96" height="16" rx="4" fill="#C4633C"/>
</svg>
